<svg viewBox="165.4001 213.1754 645.2 239.877" width="5000" height="1858.9352138871666" xmlns="http://www.w3.org/2000/svg" xmlns:xlink="http://www.w3.org/1999/xlink" preserveAspectRatio="none"><defs></defs><style>.aD6z1nYkhcolor {fill:#797979;fill-opacity:1;}.aLgOaV3zRcolors-0 {fill:#797979;fill-opacity:1;}.icon3-str {stroke:#000000;stroke-opacity:1;}.text {fill:#333333;fill-opacity:1;}</style><g opacity="1" transform="rotate(0 165.4001 425.9324)">
<svg width="645.2" height="27.12" x="165.4001" y="425.9324" version="1.1" preserveAspectRatio="none" viewBox="0.56 -26.8 645.2 27.12">
  <g transform="matrix(1 0 0 1 0 0)" class="text"><path id="id-6izo4zJp" d="M22.04-26.48L22.04-23.60L12.80-23.60L12.80 0L9.80 0L9.80-23.60L0.56-23.60L0.56-26.48L22.04-26.48Z M48.24-26.48L51.24-26.48L51.24 0L48.24 0L48.24-11.80L32.84-11.80L32.84 0L29.84 0L29.84-26.48L32.84-26.48L32.84-14.72L48.24-14.72L48.24-26.48Z M81.20-23.60L64.72-23.60L64.72-14.72L79.44-14.72L79.44-11.80L64.72-11.80L64.72-2.88L81.20-2.88L81.20 0L61.72 0L61.72-26.48L81.20-26.48L81.20-23.60Z M121.68-23.60L105.56-23.60L105.56-14.40L119.92-14.40L119.92-11.48L105.56-11.48L105.56 0L102.56 0L102.56-26.48L121.68-26.48L121.68-23.60Z M149.08-26.48L152.08-26.48L152.08-11.40Q152.08-6.12 148.94-2.90Q145.80 0.32 140.80 0.32L140.80 0.32Q135.84 0.32 132.70-2.90Q129.56-6.12 129.56-11.40L129.56-11.40L129.56-26.48L132.56-26.48L132.56-11.32Q132.56-7.04 135.12-4.64L135.12-4.64Q137.32-2.60 140.80-2.60L140.80-2.60Q144.28-2.60 146.52-4.64L146.52-4.64Q149.08-7 149.08-11.32L149.08-11.32L149.08-26.48Z M181.04-26.48L181.04-23.60L171.80-23.60L171.80 0L168.80 0L168.80-23.60L159.56-23.60L159.56-26.48L181.04-26.48Z M208.04-26.48L211.04-26.48L211.04-11.40Q211.04-6.12 207.90-2.90Q204.76 0.32 199.76 0.32L199.76 0.32Q194.80 0.32 191.66-2.90Q188.52-6.12 188.52-11.40L188.52-11.40L188.52-26.48L191.52-26.48L191.52-11.32Q191.52-7.04 194.08-4.64L194.08-4.64Q196.28-2.60 199.76-2.60L199.76-2.60Q203.24-2.60 205.48-4.64L205.48-4.64Q208.04-7 208.04-11.32L208.04-11.32L208.04-26.48Z M224.20-10.16L224.20 0L221.20 0L221.20-26.48L233.88-26.48Q237.92-26.48 240.36-24.24L240.36-24.24Q242.80-22.04 242.80-18.20L242.80-18.20Q242.80-13.24 238.68-11.44L238.68-11.44Q237.52-10.92 236.40-10.68L236.40-10.68L243.36 0L239.80 0L233.40-10.16L224.20-10.16ZM224.20-23.64L224.20-13L233.36-13Q237.60-13 239.20-15.64L239.20-15.64Q239.80-16.64 239.80-18.20L239.80-18.20Q239.80-20.72 238.08-22.18Q236.36-23.64 233.52-23.64L233.52-23.64L224.20-23.64Z M271.44-23.60L254.96-23.60L254.96-14.72L269.68-14.72L269.68-11.80L254.96-11.80L254.96-2.88L271.44-2.88L271.44 0L251.96 0L251.96-26.48L271.44-26.48L271.44-23.60Z M304.56-26.80L304.56-26.80Q310.48-26.80 314.28-22.84L314.28-22.84Q318.00-19 318.00-13.24Q318.00-7.48 314.28-3.64L314.28-3.64Q310.48 0.32 304.56 0.32L304.56 0.32Q298.64 0.32 294.84-3.64L294.84-3.64Q291.12-7.48 291.12-13.24Q291.12-19 294.84-22.84L294.84-22.84Q298.64-26.80 304.56-26.80ZM304.56-2.60L304.56-2.60Q309.28-2.60 312.20-5.68L312.20-5.68Q315.00-8.64 315.00-13.24L315.00-13.24Q315.00-17.84 312.20-20.80L312.20-20.80Q309.28-23.88 304.56-23.88L304.56-23.88Q299.84-23.88 296.92-20.80L296.92-20.80Q294.12-17.84 294.12-13.24L294.12-13.24Q294.12-8.64 296.92-5.68L296.92-5.68Q299.84-2.60 304.56-2.60Z M345.92-23.60L329.80-23.60L329.80-14.40L344.16-14.40L344.16-11.48L329.80-11.48L329.80 0L326.80 0L326.80-26.48L345.92-26.48L345.92-23.60Z M385.04-26.48L388.04-26.48L388.04 0L385.04 0L385.04-11.80L369.64-11.80L369.64 0L366.64 0L366.64-26.48L369.64-26.48L369.64-14.72L385.04-14.72L385.04-26.48Z M410.28-26.80L410.28-26.80Q416.20-26.80 420.00-22.84L420.00-22.84Q423.72-19 423.72-13.24Q423.72-7.48 420.00-3.64L420.00-3.64Q416.20 0.32 410.28 0.32L410.28 0.32Q404.36 0.32 400.56-3.64L400.56-3.64Q396.84-7.48 396.84-13.24Q396.84-19 400.56-22.84L400.56-22.84Q404.36-26.80 410.28-26.80ZM410.28-2.60L410.28-2.60Q415.00-2.60 417.92-5.68L417.92-5.68Q420.72-8.64 420.72-13.24L420.72-13.24Q420.72-17.84 417.92-20.80L417.92-20.80Q415.00-23.88 410.28-23.88L410.28-23.88Q405.56-23.88 402.64-20.80L402.64-20.80Q399.84-17.84 399.84-13.24L399.84-13.24Q399.84-8.64 402.64-5.68L402.64-5.68Q405.56-2.60 410.28-2.60Z M435.56-22.42Q434.80-21.76 434.54-20.96Q434.28-20.16 434.28-19.26Q434.28-18.36 435.06-17.60Q435.84-16.84 437.12-16.32Q438.40-15.80 440.04-15.40Q441.68-15 443.38-14.58Q445.08-14.16 446.72-13.62Q448.36-13.08 449.64-12.24L449.64-12.24Q452.48-10.44 452.48-7.32L452.48-7.32Q452.48-3.60 449.70-1.64Q446.92 0.32 442.00 0.32L442.00 0.32Q436.44 0.32 433.52-2L433.52-2Q430.92-4.08 430.56-7.92L430.56-7.92L433.68-7.92Q433.84-5.20 436.32-3.76L436.32-3.76Q438.48-2.52 442.04-2.52L442.04-2.52Q449.48-2.52 449.48-7.20L449.48-7.20Q449.48-8.80 448.14-9.72Q446.80-10.64 444.78-11.24Q442.76-11.84 440.42-12.36Q438.08-12.88 436.06-13.70Q434.04-14.52 432.70-15.86Q431.36-17.20 431.36-19.48L431.36-19.48Q431.36-22.72 433.84-24.76Q436.32-26.80 441.32-26.80L441.32-26.80Q446.36-26.80 449.12-24.48L449.12-24.48Q451.64-22.44 451.80-19.24L451.80-19.24L448.72-19.24Q448.32-22.52 444.48-23.60L444.48-23.60Q443.12-24 441.10-24Q439.08-24 437.70-23.54Q436.32-23.08 435.56-22.42Z M464.12-9.44L464.12 0L461.12 0L461.12-26.48L473.04-26.48Q477.24-26.48 479.72-24.16L479.72-24.16Q482.16-21.84 482.16-17.96L482.16-17.96Q482.16-14.04 479.70-11.74Q477.24-9.44 473.04-9.44L473.04-9.44L464.12-9.44ZM472.84-23.64L464.12-23.64L464.12-12.24L472.84-12.24Q475.96-12.24 477.56-13.76Q479.16-15.28 479.16-17.94Q479.16-20.60 477.56-22.12Q475.96-23.64 472.84-23.64L472.84-23.64Z M493.24-26.48L493.24 0L490.24 0L490.24-26.48L493.24-26.48Z M522.52-26.48L522.52-23.60L513.28-23.60L513.28 0L510.28 0L510.28-23.60L501.04-23.60L501.04-26.48L522.52-26.48Z M539.84-26.48L551.08 0L547.76 0L544.52-7.68L531.40-7.68L528.16 0L524.84 0L536.08-26.48L539.84-26.48ZM532.56-10.44L543.36-10.44L537.96-23.36L532.56-10.44Z M558.44-26.48L561.44-26.48L561.44-2.88L575.88-2.88L575.88 0L558.44 0L558.44-26.48Z M586.76-26.48L586.76 0L583.76 0L583.76-26.48L586.76-26.48Z M616.04-26.48L616.04-23.60L606.80-23.60L606.80 0L603.80 0L603.80-23.60L594.56-23.60L594.56-26.48L616.04-26.48Z M634.68-10.48L634.68 0L631.68 0L631.68-10.48L620.56-26.48L624.20-26.48L633.16-13.60L642.12-26.48L645.76-26.48L634.68-10.48Z"/></g>
</svg>
</g><g opacity="1" transform="rotate(0 315.0321 379.0494)">
<svg width="345.9357" height="29.5189" x="315.0321" y="379.0494" version="1.1" preserveAspectRatio="none" viewBox="0.7813 -28.3984 337.38280000000003 28.7891">
  <g transform="matrix(1 0 0 1 0 0)" class="aD6z1nYkhcolor"><path id="id-D6z1nYkh" d="M28.26-28.01L28.26-22.93L17.07-22.93L17.07 0L11.99 0L11.99-22.93L0.78-22.93L0.78-28.01L28.26-28.01Z M37.11-28.01L37.11-16.56L54.94-16.56L54.94-28.01L60.02-28.01L60.02 0L54.94 0L54.94-11.45L37.11-11.45L37.11 0L32.03 0L32.03-28.01L37.11-28.01Z M88.98-16.56L88.98-11.45L72.95-11.45L72.95-16.56L88.98-16.56ZM91.27-5.08L91.27 0L72.95 0Q71.89 0 70.64-0.37Q69.39-0.74 68.33-1.59Q67.27-2.44 66.55-3.80Q65.84-5.16 65.84-7.13L65.84-7.13L65.84-25.45Q65.84-25.98 66.04-26.45Q66.23-26.91 66.57-27.27Q66.91-27.62 67.38-27.81Q67.85-28.01 68.40-28.01L68.40-28.01L91.27-28.01L91.27-22.93L70.92-22.93L70.92-7.13Q70.92-6.13 71.45-5.61Q71.97-5.08 72.99-5.08L72.99-5.08L91.27-5.08Z M137.09-18.59L137.09-16.29Q137.09-14.55 136.66-13.18Q136.23-11.82 135.50-10.77Q134.77-9.73 133.81-8.98Q132.85-8.24 131.81-7.77Q130.76-7.30 129.70-7.09Q128.63-6.88 127.70-6.88L127.70-6.88L116.21-6.88L116.21-11.95L127.70-11.95Q128.67-12.03 129.46-12.35Q130.25-12.68 130.82-13.22Q131.39-13.77 131.70-14.54Q132.01-15.31 132.01-16.29L132.01-16.29L132.01-18.59Q131.91-19.55 131.60-20.35Q131.29-21.15 130.75-21.72Q130.21-22.29 129.45-22.61Q128.69-22.93 127.70-22.93L127.70-22.93L116.25-22.93Q115.23-22.93 114.71-22.40Q114.18-21.88 114.18-20.88L114.18-20.88L114.18 0L109.10 0L109.10-20.88Q109.10-22.83 109.81-24.20Q110.53-25.57 111.59-26.41Q112.66-27.25 113.91-27.63Q115.16-28.01 116.21-28.01L116.21-28.01L127.70-28.01Q129.41-28.01 130.78-27.57Q132.15-27.13 133.19-26.40Q134.24-25.66 134.97-24.71Q135.70-23.75 136.18-22.71Q136.66-21.66 136.88-20.60Q137.09-19.53 137.09-18.59L137.09-18.59Z M146.54-28.01L146.54 0L141.46 0L141.46-28.01L146.54-28.01Z M180.47-28.01L180.47-2.17Q180.47-1.62 180.26-1.15Q180.06-0.68 179.72-0.34Q179.38 0 178.91 0.20Q178.44 0.39 177.91 0.39L177.91 0.39Q177.44 0.39 176.96 0.21Q176.48 0.04 176.11-0.35L176.11-0.35L157.56-19.73L157.56 0L152.48 0L152.48-25.84Q152.48-26.62 152.92-27.26Q153.36-27.89 154.04-28.20L154.04-28.20Q154.77-28.50 155.53-28.35Q156.29-28.20 156.84-27.64L156.84-27.64L175.39-8.28L175.39-28.01L180.47-28.01Z M214.36-28.01L214.36-2.17Q214.36-1.62 214.15-1.15Q213.95-0.68 213.60-0.34Q213.26 0 212.79 0.20Q212.32 0.39 211.80 0.39L211.80 0.39Q211.33 0.39 210.85 0.21Q210.37 0.04 210-0.35L210-0.35L191.45-19.73L191.45 0L186.37 0L186.37-25.84Q186.37-26.62 186.81-27.26Q187.25-27.89 187.93-28.20L187.93-28.20Q188.65-28.50 189.41-28.35Q190.18-28.20 190.72-27.64L190.72-27.64L209.28-8.28L209.28-28.01L214.36-28.01Z M247.73-25.45L247.73 0L242.66 0L242.66-6.88L224.80-6.88L224.80 0L219.73 0L219.73-14.00Q219.73-17.07 220.78-19.65Q221.84-22.23 223.71-24.08Q225.59-25.94 228.14-26.97Q230.70-28.01 233.73-28.01L233.73-28.01L245.18-28.01Q245.70-28.01 246.17-27.81Q246.64-27.62 246.99-27.27Q247.34-26.91 247.54-26.45Q247.73-25.98 247.73-25.45L247.73-25.45ZM224.80-14.00L224.80-11.95L242.66-11.95L242.66-22.93L233.73-22.93Q233.50-22.93 232.74-22.86Q231.99-22.79 231.01-22.52Q230.02-22.25 228.93-21.68Q227.83-21.11 226.91-20.12Q226.00-19.12 225.40-17.63Q224.80-16.13 224.80-14.00L224.80-14.00Z M278.71-5.08L278.71 0L260.39 0Q259.69 0 258.88-0.17Q258.07-0.33 257.28-0.68Q256.48-1.04 255.76-1.59Q255.04-2.15 254.48-2.94Q253.93-3.73 253.59-4.78Q253.26-5.82 253.26-7.13L253.26-7.13L253.26-20.88Q253.26-21.58 253.43-22.39Q253.59-23.20 253.95-23.99Q254.30-24.79 254.86-25.51Q255.43-26.23 256.22-26.79Q257.01-27.34 258.05-27.68Q259.08-28.01 260.39-28.01L260.39-28.01L278.71-28.01L278.71-22.93L260.39-22.93Q259.39-22.93 258.87-22.40Q258.34-21.88 258.34-20.84L258.34-20.84L258.34-7.13Q258.34-6.15 258.88-5.62Q259.41-5.08 260.39-5.08L260.39-5.08L278.71-5.08Z M309.24-5.08L309.24 0L286.07 0Q285.53 0 285.06-0.20Q284.59-0.39 284.25-0.73Q283.91-1.07 283.71-1.54Q283.52-2.01 283.52-2.56L283.52-2.56L283.52-28.01L288.59-28.01L288.59-5.08L309.24-5.08Z M335.88-16.56L335.88-11.45L319.84-11.45L319.84-16.56L335.88-16.56ZM338.16-5.08L338.16 0L319.84 0Q318.79 0 317.54-0.37Q316.29-0.74 315.22-1.59Q314.16-2.44 313.45-3.80Q312.73-5.16 312.73-7.13L312.73-7.13L312.73-25.45Q312.73-25.98 312.93-26.45Q313.13-26.91 313.47-27.27Q313.81-27.62 314.28-27.81Q314.75-28.01 315.29-28.01L315.29-28.01L338.16-28.01L338.16-22.93L317.81-22.93L317.81-7.13Q317.81-6.13 318.34-5.61Q318.87-5.08 319.88-5.08L319.88-5.08L338.16-5.08Z"/></g>
</svg>
</g><g opacity="1" transform="rotate(0 274.8092 213.1754)">
<svg width="426.3816" height="135.7686" x="274.8092" y="213.1754" version="1.1" preserveAspectRatio="none" viewBox="10.500524520874023 71.50202941894531 179.00140380859375 56.99769592285156">
  <g transform="matrix(1 0 0 1 0 0)" ><g><path d="M135.806 109.286c.721-1.817 1.363-3.673 2.216-5.426.232-.476 1.159-.572 1.666-.971.502-.395 1.069-.899 1.222-1.461.072-.262-.699-.912-1.2-1.143-1.727-.797-3.472-1.582-5.277-2.167-.68-.22-1.694-.123-2.29.251-1.31.822-3.318.449-3.823-.993-.085-.244.379-.64.479-.997.119-.425.394-.961.358-1.408-.055-.692-.732-.215-1.241-.016-1.558.608-4.228 1.04-4.815 2.844-.045.138-.077.291-.023.426.042.105.131.184.217.258 1.509 1.304 3.173 2.436 4.589 3.846.257.256.038 1.352-.309 1.784-1.689 2.107-4.258 2.799-6.516 4.047-2.566 1.418-5.051.696-7.546 1.071-1.228.184-2.393.749-3.614 1.021-.629.141-1.317.019-1.979.015.277-.375.474-.927.846-1.094 1.859-.838 3.734-2.104 5.661-2.214 2.475-.142 4.106-1.317 5.741-2.773.952-.848.22-2.433-1.547-3.537-.883-.552-1.935-.986-2.572-1.752-1.654-1.989-3.822-1.007-5.767-1.202-1.686-.169-3.612.465-4.383-1.889-.09-.275-1.015-.552-1.393-.408-1.057.4-2.023 1.034-3.039 1.547-.969.489-1.756.396-1.348-.91.138-.442.567-.726.637-1.202.097-.652-.428-1.366-.947-1.716-.777-.524-1.882.125-2.595.504-1.014.539-1.969 1.178-2.943 1.783-.674.418-1.622 1.252-2.481.864-.462-.209.459-1.279.66-1.584.441-.669.893-1.332 1.345-1.995.642-.941 1.337-1.846 1.93-2.82.304-.499-.214-2.181-.929-2.2-1.337-.036-2.724.273-4.021.675-.817.253-1.575.653-2.342 1.023-.422.203-.936.505-1.454.468-.741-.053-1.018-.283-.508-.845.907-1 2.006-1.819 2.892-2.838.183-.211.211-.91.107-.96-.986-.47-2.008-1.146-3.035-1.174-1.22-.033-2.488.854-3.679.742-2.887-.272-4.341 1.713-6.189 3.25-1.078.896-3.71 2.901-3.622 2.05 1.845-2.543 3.29-5.374 6.497-6.416.152-.049.374-.085.43-.195 1.414-2.778 4.715-3.041 6.732-5.046 1.751-1.74 3.839-3.156 5.501-4.968.543-.592 1.205-1.823 1.96-1.929.487-.068 1.072.756 1.485 1.106 1.049.888 1.997 1.894 2.984 2.855.072.07.078.26.143.275.873.204 1.362-.494 1.875-.026 1.694 1.546 2.97 5.545 4.221 7.392 1.525 2.251.947 2.256 3.392 1.015.815-.414 1.454.329 2.271.936 2.543 1.889 3.398 4.62 6.383 7.084 2.33 1.923 3.756 3.593 6.393 2.033 2.226-1.316 4.439-2.659 6.714-3.887 2.982-1.61.894-3.075 7.262 3.492 1.026 1.058 1.953 2.577 3.144 3.68 1.447 1.34 3.026 2.548 4.624 3.71.889.647 1.879 1.25 2.917 1.581 1.921.613 3.968.856 5.858 1.54 2.194.795 4.292 1.864 6.398 2.884 1.094.53 2.173 1.129 3.153 1.842a63.845 63.845 0 0 1 4.362 3.491c1.9 1.653 3.877 2.926 6.501 3.342 1.973.313 3.836 1.35 5.732 2.106 1.251.499 2.554.942 3.691 1.642 1.983 1.221 3.859 2.614 5.763 3.958.127.09.209.505.153.545-.281.198-.682.52-.92.44-1.699-.572-3.338-1.337-5.055-1.838-2.683-.782-4.327-3.194-7.555-3.597-3.096-.387-6.262-.585-9.355-1.102-1.939-.324-3.76-1.325-5.652-1.966a4.434 4.434 0 0 0-1.723-.232c-2.507.198-5.012.418-7.517.631-1.232.105-2.464.21-3.696.305-1.064.082-2.025.206-2.996-.367.889-1.437 3.24-1.484 4.726-1.938.502-.153 1.209-.381 1.356-.756.169-.431-.025-1.39-.337-1.537-.542-.255-1.297-.077-1.961-.052-.562.021-1.124.13-1.684.115-1.364-.034-2.742-.275-4.085-.142-1.733.171-3.426.723-5.159.927-1.372.161-2.795-.098-4.162.082-2.564.337-5.098.9-7.66 1.262-.529.075-1.108-.322-1.565-.549.458-.251.927-.466 1.41-.667 2.666-.906 5.352-1.752 8.004-2.695.696-.248 1.295-.768 1.938-1.163" data-color="1" class="aLgOaV3zRcolors-0"></path><path d="M26.735 119.511c-.554-1.718.797-2.565 1.726-3.516a141.416 141.416 0 0 1 6.087-5.86c.697-.634 1.794-.863 2.416-1.543 1.804-1.973 3.367-4.167 5.206-6.103 1.179-1.242 2.726-2.129 4.023-3.272 1.663-1.465 3.252-3.015 4.852-4.551 1.456-1.398 3.196-3.631 4.823-4.783.461-.327 1.486 1.058 2.285 1.6 1.565 1.062 2.54 2.32 3.892 3.636 1.405 1.368 3.117 2.889 4.422 4.363.991 1.119 1.544 2.586 2.476 3.748.668.834 1.768 1.345 2.217 2.32.593 1.287 1.065 2.614 2.775 2.769.08.007.224.291.19.401-.185.61-.245 1.392-.663 1.771-1.099.998-1.814 3.445-3.689 2.278-1.76-1.096-2.248.29-3.246.777-.403.196-.753.687-1.139.701-2.865.101-4.934 1.537-6.863 3.522-.51.524-1.873.223-2.845.301-.012-.334-.166-.763-.015-.986 1.82-2.692 3.7-5.345 5.498-8.052.09-.136-.411-.964-.672-.982-1.642-.116-3.297.349-4.673-1.301-.383-.459-2.081.137-3.166.312-.455.074-.882.314-1.322.479.12-.67.066-1.451.405-1.983.418-.657 1.335-1.004 1.731-1.667.739-1.237-.154-1.993-.984-2.894-1.112-1.207-1.839-2.334-3.575-.685-1.896 1.801-4.17 3.204-6.087 4.986-2.501 2.324-4.787 4.875-7.213 7.28-2.252 2.232-4.529 4.444-6.889 6.56-.428.384-1.308.265-1.98.378l-.003-.004zm37.201-6.937c-.234-.256-.385-.53-.49-.514-.209.033-.427.198-.565.369-.038.047.186.44.301.445.205.011.418-.153.754-.3z" data-color="1" class="aLgOaV3zRcolors-0"></path><path d="M93.372 116.799c-.27.085-.771.397-.979.479-.863.341-1.725.683-2.595 1.002-1.168.428-2.338.861-3.533 1.199-1.081.305-2.193.511-3.302.695-.267.044-.558-.155-.782-.275-.384-.206 1.229-1.634 1.415-1.723.821-.395 1.752-.508 2.543-.988.756-.459 1.614-1.182 1.83-1.954.152-.544-.321-1.299-.629-1.705a.821.821 0 0 0-.265-.25c-.597-.309-1.987.135-2.612.243-.942.163-1.876.369-2.811.567-3.266.691-5.268 3.371-7.905 5.053-.827.527-1.715 1.121-2.685 1.392-.392.109-1.073.269-1.442 0-.422-.307-.111-.836.295-1.111 1.924-1.305 3.942-2.481 5.803-3.868.916-.683 1.715-1.635 2.302-2.622 1.69-2.842 4.383-4.468 7.057-6.156.678-.428 1.404-.899 1.866-1.526 1.325-1.799 2.643-1.233 4.167-.299 1.212.743 2.626 1.155 3.854 1.876 2.53 1.485 4.991 3.089 7.492 4.624 1.35.829 2.834 1.483 4.058 2.463 1.369 1.095 2.491 2.493 3.769 3.708.32.304.821.426 1.247.613 1.016.447 2.049.859 3.047 1.344.215.105.311.455.461.692-.264.144-.546.435-.791.407-1.494-.172-2.862.106-4.471-.832-3.54-2.063-7.506-2.725-11.471-.565-1.803.982-3.704 1.794-5.601 2.585-.415.173-1.124-.016-1.508-.185.283-.882.714-1.707 1.177-2.506.415-.717.679-1.458 1.239-2.093.248-.282.081-.299-.126-.302a.282.282 0 0 0-.114.018z" data-color="1" class="aLgOaV3zRcolors-0"></path><path d="M17.892 124.505c-.213-.175-.051-.467.251-.732.708-.623 1.648-1.293 2.591-1.488.708-.147 1.447.023 2.148-.206-.109.037-.356.837-.451.995-.183.303-.41.58-.684.805-.587.482-1.336.682-2.086.7-.452.011-1.098.144-1.534.033a.6.6 0 0 1-.235-.107z" data-color="1" class="aLgOaV3zRcolors-0"></path><path d="M13.923 127.196c.539-1.963 1.87-2.739 3.845-2.551l-.025-.026c-.553 1.941-1.962 2.6-3.843 2.552l.023.025z" data-color="1" class="aLgOaV3zRcolors-0"></path><path d="M13.9 127.171c-.413 1.018-2.366 1.699-3.247 1.111-.148-.099-.175-.219-.137-.258.197-.201.3-.684.551-.707.449-.04.85-.356 1.302-.371.501-.017 1.054.268 1.555.25l-.024-.025z" data-color="1" class="aLgOaV3zRcolors-0"></path><path d="M25.391 120.805c.076.162.059.386-.099.676-.521.956-1.541.478-2.421.577l.025.028c.059-.764.591-1.332 1.316-1.538.508-.144 1.028-.067 1.179.257z" data-color="1" class="aLgOaV3zRcolors-0"></path><path d="M64.415 122.969c-.111-.083-.122-.216.047-.416.187-.222.684-.44.953-.557.18-.079.491-.142.672-.025.421.273.072.857-.279 1.01-.233.101-1.118.196-1.393-.012z" data-color="1" class="aLgOaV3zRcolors-0"></path><path d="M61.363 124.655a.341.341 0 0 1-.02-.073c-.039-.219.169-.398.36-.513a5.743 5.743 0 0 1 1.724-.69c.123-.027.253-.051.375-.02.83.209-.55 1.325-.861 1.445-.32.123-1.392.331-1.578-.149z" data-color="1" class="aLgOaV3zRcolors-0"></path><path d="M60.996 124.891a.211.211 0 0 1 .032.048c.09.177-.221.613-.382.676-.22.086-.925.276-1.145.121-.393-.277.611-.698.777-.758.167-.06.558-.266.718-.087z" data-color="1" class="aLgOaV3zRcolors-0"></path><path d="M69.712 93.095c-.097.349-.093.659-.236.759-.153.107-.445.017-.677.013.03-.266-.003-.567.12-.78.055-.093.427-.003.793.008z" data-color="1" class="aLgOaV3zRcolors-0"></path><path d="M71.639 91.353c-.222.351-.252 1.011-.666 1.052-.104.01-.467.119-.538.044-.06-.062.131-.37.144-.455.06-.411.724-.41 1.086-.616l-.026-.025z" data-color="1" class="aLgOaV3zRcolors-0"></path><path d="M135.834 109.259l-.028.028 1.127.604" data-color="1" class="aLgOaV3zRcolors-0"></path><path d="M63.936 112.574c-.336.146-.549.31-.754.301-.115-.005-.339-.398-.301-.445.138-.171.356-.337.565-.369.105-.017.256.257.49.513z" data-color="1" class="aLgOaV3zRcolors-0"></path></g></g>
</svg>
</g></svg>